HIERARCHY
ROOT mixamorig:Hips
{
	OFFSET 0.000000 103.991501 0.000000
	CHANNELS 6 Xposition Yposition Zposition Xrotation Yrotation Zrotation
	JOINT mixamorig:Spine
	{
		OFFSET 0.000000 10.181602 0.131500
		CHANNELS 6 Xposition Yposition Zposition Xrotation Yrotation Zrotation
		JOINT mixamorig:Spine1
		{
			OFFSET 0.000000 10.083504 -1.000800
			CHANNELS 6 Xposition Yposition Zposition Xrotation Yrotation Zrotation
			JOINT mixamorig:Spine2
			{
				OFFSET 0.000000 9.100006 -1.373400
				CHANNELS 6 Xposition Yposition Zposition Xrotation Yrotation Zrotation
				JOINT mixamorig:Neck
				{
					OFFSET 0.000000 16.671707 -2.516200
					CHANNELS 6 Xposition Yposition Zposition Xrotation Yrotation Zrotation
					JOINT mixamorig:Head
					{
						OFFSET 0.000000 9.617905 1.685000
						CHANNELS 6 Xposition Yposition Zposition Xrotation Yrotation Zrotation
						JOINT mixamorig:HeadTop_End
						{
							OFFSET 0.000000 17.815201 2.585000
							CHANNELS 6 Xposition Yposition Zposition Xrotation Yrotation Zrotation
							End Site
							{
								OFFSET 0.000000 13.794495 0.000000
							}
						}
						JOINT mixamorig:LeftEye
						{
							OFFSET 3.067600 6.409500 9.283600
							CHANNELS 6 Xposition Yposition Zposition Xrotation Yrotation Zrotation
							End Site
							{
								OFFSET 0.000000 13.794495 0.000000
							}
						}
						JOINT mixamorig:RightEye
						{
							OFFSET -3.067600 6.409500 9.283500
							CHANNELS 6 Xposition Yposition Zposition Xrotation Yrotation Zrotation
							End Site
							{
								OFFSET 0.000000 13.794495 0.000000
							}
						}
					}
				}
				JOINT mixamorig:LeftShoulder
				{
					OFFSET 4.570400 10.945999 -2.628000
					CHANNELS 6 Xposition Yposition Zposition Xrotation Yrotation Zrotation
					JOINT mixamorig:LeftArm
					{
						OFFSET 10.592400 -0.524597 -2.232100
						CHANNELS 6 Xposition Yposition Zposition Xrotation Yrotation Zrotation
						JOINT mixamorig:LeftForeArm
						{
							OFFSET 27.841499 0.000000 0.000000
							CHANNELS 6 Xposition Yposition Zposition Xrotation Yrotation Zrotation
							JOINT mixamorig:LeftHand
							{
								OFFSET 28.328800 0.000000 0.000000
								CHANNELS 6 Xposition Yposition Zposition Xrotation Yrotation Zrotation
								JOINT mixamorig:LeftHandThumb1
								{
									OFFSET 2.466103 -1.576218 2.681689
									CHANNELS 6 Xposition Yposition Zposition Xrotation Yrotation Zrotation
									JOINT mixamorig:LeftHandThumb2
									{
										OFFSET 3.229782 -1.864716 1.864716
										CHANNELS 6 Xposition Yposition Zposition Xrotation Yrotation Zrotation
										JOINT mixamorig:LeftHandThumb3
										{
											OFFSET 2.652611 -1.531494 1.531488
											CHANNELS 6 Xposition Yposition Zposition Xrotation Yrotation Zrotation
											JOINT mixamorig:LeftHandThumb4
											{
												OFFSET 1.954605 -1.128494 1.128493
												CHANNELS 6 Xposition Yposition Zposition Xrotation Yrotation Zrotation
												End Site
												{
													OFFSET -0.000404 2.523392 0.000683
												}
											}
										}
									}
								}
								JOINT mixamorig:LeftHandIndex1
								{
									OFFSET 9.109299 -0.518112 2.259867
									CHANNELS 6 Xposition Yposition Zposition Xrotation Yrotation Zrotation
									JOINT mixamorig:LeftHandIndex2
									{
										OFFSET 3.676399 0.000000 0.000000
										CHANNELS 6 Xposition Yposition Zposition Xrotation Yrotation Zrotation
										JOINT mixamorig:LeftHandIndex3
										{
											OFFSET 2.883102 0.000000 0.000000
											CHANNELS 6 Xposition Yposition Zposition Xrotation Yrotation Zrotation
											JOINT mixamorig:LeftHandIndex4
											{
												OFFSET 2.392700 0.000000 0.000000
												CHANNELS 6 Xposition Yposition Zposition Xrotation Yrotation Zrotation
												End Site
												{
													OFFSET 0.000000 2.392700 0.001080
												}
											}
										}
									}
								}
								JOINT mixamorig:LeftHandMiddle1
								{
									OFFSET 9.533401 0.000000 0.000000
									CHANNELS 6 Xposition Yposition Zposition Xrotation Yrotation Zrotation
									JOINT mixamorig:LeftHandMiddle2
									{
										OFFSET 3.698196 0.000000 0.000000
										CHANNELS 6 Xposition Yposition Zposition Xrotation Yrotation Zrotation
										JOINT mixamorig:LeftHandMiddle3
										{
											OFFSET 2.950897 0.000000 0.000000
											CHANNELS 6 Xposition Yposition Zposition Xrotation Yrotation Zrotation
											JOINT mixamorig:LeftHandMiddle4
											{
												OFFSET 2.833900 0.000000 0.000000
												CHANNELS 6 Xposition Yposition Zposition Xrotation Yrotation Zrotation
												End Site
												{
													OFFSET 0.000000 2.833893 0.001278
												}
											}
										}
									}
								}
								JOINT mixamorig:LeftHandRing1
								{
									OFFSET 9.104500 -0.043060 -1.865119
									CHANNELS 6 Xposition Yposition Zposition Xrotation Yrotation Zrotation
									JOINT mixamorig:LeftHandRing2
									{
										OFFSET 3.153999 0.000000 0.000000
										CHANNELS 6 Xposition Yposition Zposition Xrotation Yrotation Zrotation
										JOINT mixamorig:LeftHandRing3
										{
											OFFSET 2.937698 0.000000 0.000000
											CHANNELS 6 Xposition Yposition Zposition Xrotation Yrotation Zrotation
											JOINT mixamorig:LeftHandRing4
											{
												OFFSET 2.647499 0.000000 0.000000
												CHANNELS 6 Xposition Yposition Zposition Xrotation Yrotation Zrotation
												End Site
												{
													OFFSET 0.000000 2.647507 0.001195
												}
											}
										}
									}
								}
								JOINT mixamorig:LeftHandPinky1
								{
									OFFSET 8.077797 -0.486984 -3.806321
									CHANNELS 6 Xposition Yposition Zposition Xrotation Yrotation Zrotation
									JOINT mixamorig:LeftHandPinky2
									{
										OFFSET 3.599998 0.000000 0.000000
										CHANNELS 6 Xposition Yposition Zposition Xrotation Yrotation Zrotation
										JOINT mixamorig:LeftHandPinky3
										{
											OFFSET 2.114197 0.000000 0.000000
											CHANNELS 6 Xposition Yposition Zposition Xrotation Yrotation Zrotation
											JOINT mixamorig:LeftHandPinky4
											{
												OFFSET 1.975700 0.000000 0.000000
												CHANNELS 6 Xposition Yposition Zposition Xrotation Yrotation Zrotation
												End Site
												{
													OFFSET 0.000000 1.975693 0.000892
												}
											}
										}
									}
								}
							}
						}
					}
				}
				JOINT mixamorig:RightShoulder
				{
					OFFSET -4.570000 10.946198 -2.628000
					CHANNELS 6 Xposition Yposition Zposition Xrotation Yrotation Zrotation
					JOINT mixamorig:RightArm
					{
						OFFSET -10.592800 -0.524796 -2.232100
						CHANNELS 6 Xposition Yposition Zposition Xrotation Yrotation Zrotation
						JOINT mixamorig:RightForeArm
						{
							OFFSET -27.841499 0.000000 0.000000
							CHANNELS 6 Xposition Yposition Zposition Xrotation Yrotation Zrotation
							JOINT mixamorig:RightHand
							{
								OFFSET -28.328800 0.000000 0.000000
								CHANNELS 6 Xposition Yposition Zposition Xrotation Yrotation Zrotation
								JOINT mixamorig:RightHandPinky1
								{
									OFFSET -8.076698 -0.486725 -3.806227
									CHANNELS 6 Xposition Yposition Zposition Xrotation Yrotation Zrotation
									JOINT mixamorig:RightHandPinky2
									{
										OFFSET -3.599998 0.000000 0.000000
										CHANNELS 6 Xposition Yposition Zposition Xrotation Yrotation Zrotation
										JOINT mixamorig:RightHandPinky3
										{
											OFFSET -2.114197 0.000000 0.000000
											CHANNELS 6 Xposition Yposition Zposition Xrotation Yrotation Zrotation
											JOINT mixamorig:RightHandPinky4
											{
												OFFSET -1.975700 0.000000 0.000000
												CHANNELS 6 Xposition Yposition Zposition Xrotation Yrotation Zrotation
												End Site
												{
													OFFSET 0.000000 1.975693 0.000919
												}
											}
										}
									}
								}
								JOINT mixamorig:RightHandRing1
								{
									OFFSET -9.103600 -0.043030 -1.865120
									CHANNELS 6 Xposition Yposition Zposition Xrotation Yrotation Zrotation
									JOINT mixamorig:RightHandRing2
									{
										OFFSET -3.153999 0.000000 0.000000
										CHANNELS 6 Xposition Yposition Zposition Xrotation Yrotation Zrotation
										JOINT mixamorig:RightHandRing3
										{
											OFFSET -2.937698 0.000000 0.000000
											CHANNELS 6 Xposition Yposition Zposition Xrotation Yrotation Zrotation
											JOINT mixamorig:RightHandRing4
											{
												OFFSET -2.647499 0.000000 0.000000
												CHANNELS 6 Xposition Yposition Zposition Xrotation Yrotation Zrotation
												End Site
												{
													OFFSET 0.000000 2.647507 0.001231
												}
											}
										}
									}
								}
								JOINT mixamorig:RightHandMiddle1
								{
									OFFSET -9.532501 0.000000 0.000000
									CHANNELS 6 Xposition Yposition Zposition Xrotation Yrotation Zrotation
									JOINT mixamorig:RightHandMiddle2
									{
										OFFSET -3.698196 0.000000 0.000000
										CHANNELS 6 Xposition Yposition Zposition Xrotation Yrotation Zrotation
										JOINT mixamorig:RightHandMiddle3
										{
											OFFSET -2.950897 0.000000 0.000000
											CHANNELS 6 Xposition Yposition Zposition Xrotation Yrotation Zrotation
											JOINT mixamorig:RightHandMiddle4
											{
												OFFSET -2.833900 0.000000 0.000000
												CHANNELS 6 Xposition Yposition Zposition Xrotation Yrotation Zrotation
												End Site
												{
													OFFSET 0.000000 2.833893 0.001318
												}
											}
										}
									}
								}
								JOINT mixamorig:RightHandIndex1
								{
									OFFSET -9.108299 -0.517853 2.259859
									CHANNELS 6 Xposition Yposition Zposition Xrotation Yrotation Zrotation
									JOINT mixamorig:RightHandIndex2
									{
										OFFSET -3.676399 0.000000 0.000000
										CHANNELS 6 Xposition Yposition Zposition Xrotation Yrotation Zrotation
										JOINT mixamorig:RightHandIndex3
										{
											OFFSET -2.883102 0.000000 0.000000
											CHANNELS 6 Xposition Yposition Zposition Xrotation Yrotation Zrotation
											JOINT mixamorig:RightHandIndex4
											{
												OFFSET -2.392700 0.000000 0.000000
												CHANNELS 6 Xposition Yposition Zposition Xrotation Yrotation Zrotation
												End Site
												{
													OFFSET 0.000000 2.392700 0.001113
												}
											}
										}
									}
								}
								JOINT mixamorig:RightHandThumb1
								{
									OFFSET -2.464798 -1.573944 2.681868
									CHANNELS 6 Xposition Yposition Zposition Xrotation Yrotation Zrotation
									JOINT mixamorig:RightHandThumb2
									{
										OFFSET -3.229782 -1.864716 1.864716
										CHANNELS 6 Xposition Yposition Zposition Xrotation Yrotation Zrotation
										JOINT mixamorig:RightHandThumb3
										{
											OFFSET -2.652542 -1.531448 1.531448
											CHANNELS 6 Xposition Yposition Zposition Xrotation Yrotation Zrotation
											JOINT mixamorig:RightHandThumb4
											{
												OFFSET -1.954605 -1.128494 1.128493
												CHANNELS 6 Xposition Yposition Zposition Xrotation Yrotation Zrotation
												End Site
												{
													OFFSET 0.000412 2.523392 0.000704
												}
											}
										}
									}
								}
							}
						}
					}
				}
			}
		}
	}
	JOINT mixamorig:LeftUpLeg
	{
		OFFSET 8.207800 -6.751701 -1.599600
		CHANNELS 6 Xposition Yposition Zposition Xrotation Yrotation Zrotation
		JOINT mixamorig:LeftLeg
		{
			OFFSET 0.000000 -44.370499 0.284600
			CHANNELS 6 Xposition Yposition Zposition Xrotation Yrotation Zrotation
			JOINT mixamorig:LeftFoot
			{
				OFFSET 0.000000 -44.427898 -2.982200
				CHANNELS 6 Xposition Yposition Zposition Xrotation Yrotation Zrotation
				JOINT mixamorig:LeftToeBase
				{
					OFFSET 0.000000 -8.728700 10.710600
					CHANNELS 6 Xposition Yposition Zposition Xrotation Yrotation Zrotation
					JOINT mixamorig:LeftToe_End
					{
						OFFSET 0.000000 -0.000700 9.278099
						CHANNELS 6 Xposition Yposition Zposition Xrotation Yrotation Zrotation
						End Site
						{
							OFFSET 0.000000 9.278100 0.000000
						}
					}
				}
			}
		}
	}
	JOINT mixamorig:RightUpLeg
	{
		OFFSET -8.207800 -6.751701 -1.599600
		CHANNELS 6 Xposition Yposition Zposition Xrotation Yrotation Zrotation
		JOINT mixamorig:RightLeg
		{
			OFFSET 0.000000 -44.370499 0.286200
			CHANNELS 6 Xposition Yposition Zposition Xrotation Yrotation Zrotation
			JOINT mixamorig:RightFoot
			{
				OFFSET 0.000000 -44.427700 -2.983800
				CHANNELS 6 Xposition Yposition Zposition Xrotation Yrotation Zrotation
				JOINT mixamorig:RightToeBase
				{
					OFFSET 0.000000 -8.728700 10.710600
					CHANNELS 6 Xposition Yposition Zposition Xrotation Yrotation Zrotation
					JOINT mixamorig:RightToe_End
					{
						OFFSET 0.000000 -0.000700 9.278100
						CHANNELS 6 Xposition Yposition Zposition Xrotation Yrotation Zrotation
						End Site
						{
							OFFSET 0.000000 9.278100 0.000000
						}
					}
				}
			}
		}
	}
}
MOTION
Frames: 3
Frame Time: 0.016667
-0.050520 102.635780 1.939225 2.565332 -5.705615 -2.516510 -0.000000 10.181601 0.131500 2.763297 2.439373 0.797491 -0.000001 10.083513 -1.000800 1.935029 0.329342 -1.918865 0.000000 9.099986 -1.373397 1.945528 0.315063 -1.914587 -0.000001 16.671705 -2.516197 -0.977802 -0.397238 3.479580 -0.000000 9.617889 1.685000 1.341761 2.928914 -0.631876 -0.000000 17.815201 2.585003 -0.000001 0.000000 0.000000 3.067600 6.409500 9.283605 -0.000001 0.000000 0.000000 -3.067600 6.409500 9.283503 -0.000001 0.000000 0.000000 4.570400 10.946010 -2.627997 0.690559 -3.225636 10.867911 10.592405 -0.524584 -2.232092 50.422659 -30.297189 -36.786846 27.841501 0.000009 0.000009 -0.000061 -71.522988 -0.000067 28.328787 0.000001 -0.000001 29.804347 1.768115 0.883235 2.466101 -1.576215 2.681687 -1.627238 8.968109 6.932359 3.229780 -1.864698 1.864715 4.379938 13.244928 1.150285 2.652622 -1.531501 1.531485 -0.579476 1.575020 2.538717 1.954592 -1.128478 1.128485 0.000001 0.000000 0.000002 9.109290 -0.518093 2.259865 0.204822 1.670226 -13.982347 3.676378 -0.000006 0.000003 0.198636 1.645098 -13.767831 2.883091 -0.000007 0.000002 0.195796 1.633557 -13.669208 2.392671 -0.000018 0.000002 -0.000000 -0.000000 -0.000001 9.533399 0.000003 -0.000003 0.253795 1.855736 -15.573755 3.698189 0.000014 -0.000002 0.353262 2.181197 -18.397442 2.950884 -0.000001 -0.000000 0.369718 2.229993 -18.824599 2.833910 0.000003 -0.000004 -0.000000 0.000000 0.000002 9.104500 -0.043071 -1.865117 0.453908 2.462963 -20.880882 3.154001 0.000015 -0.000001 0.633148 2.888929 -24.718530 2.937713 -0.000003 -0.000004 0.665749 2.958613 -25.357602 2.647492 0.000004 0.000004 0.000001 0.000002 0.000003 8.077787 -0.486975 -3.806317 3.064675 7.033134 -30.608595 3.599988 -0.000005 0.000001 0.990443 -0.518900 -31.314054 2.114202 0.000015 -0.000001 0.972640 3.533288 -30.773711 1.975701 0.000015 -0.000001 -0.000000 -0.000000 -0.000000 -4.570003 10.946200 -2.627997 2.217274 6.978593 -6.557536 -10.592804 -0.524781 -2.232106 53.085248 38.478820 30.878285 -27.841511 0.000007 -0.000006 -0.000005 69.497277 0.000011 -28.328794 0.000006 0.000004 19.510014 -5.655630 -1.332292 -8.076712 -0.486723 -3.806225 0.530740 -2.668982 22.489649 -3.599972 -0.000005 -0.000000 0.552135 -2.720039 22.944649 -2.114191 0.000006 0.000003 0.568402 -2.758097 23.285175 -1.975702 -0.000001 0.000003 -0.000000 -0.000000 0.000000 -9.103595 -0.043044 -1.865116 0.311293 -2.061052 17.175556 -3.153993 -0.000003 0.000001 0.455339 -2.479228 20.810905 -2.937689 -0.000014 -0.000002 0.497759 -2.587976 21.770586 -2.647485 -0.000002 0.000000 0.000000 -0.000000 0.000004 -9.532513 0.000004 0.000001 0.264074 -1.901650 15.809810 -3.698198 0.000002 -0.000001 0.389871 -2.299753 19.240476 -2.950881 -0.000004 0.000002 0.427735 -2.405409 20.163156 -2.833886 -0.000002 -0.000002 -0.000000 0.000000 -0.000003 -9.108314 -0.517842 2.259863 0.346035 -2.170192 18.116674 -3.676400 0.000005 -0.000001 0.369970 -2.241987 18.738585 -2.883090 -0.000007 -0.000000 0.383591 -2.281713 19.083651 -2.392682 -0.000016 -0.000005 -0.000000 -0.000000 0.000002 -2.464804 -1.573949 2.681872 -2.030263 -12.017200 -7.916343 -3.229773 -1.864701 1.864719 5.396311 -17.106680 -0.803883 -2.652542 -1.531448 1.531444 -1.273774 0.137314 -2.094874 -1.954605 -1.128509 1.128495 -0.000001 0.000001 0.000000 8.207800 -6.751695 -1.599599 -7.689523 4.954447 12.243146 0.000000 -44.370502 0.284600 11.832266 9.505378 0.615426 -0.000004 -44.427902 -2.982200 -2.428103 15.089285 -11.008087 0.000001 -8.728699 10.710599 -0.647289 0.000002 0.000002 0.000001 -0.000700 9.278100 -0.000000 0.000000 0.000000 -8.207801 -6.751689 -1.599600 -7.257206 -10.374228 -4.384266 -0.000001 -44.370502 0.286199 8.077838 -4.551525 -2.659688 -0.000002 -44.427700 -2.983800 -2.143079 -1.828914 8.780734 -0.000003 -8.728702 10.710601 -1.015780 0.000006 0.000001 -0.000002 -0.000700 9.278100 -0.000000 0.000001 0.000000 
0.021006 102.656754 1.995297 2.499160 -5.645918 -2.524268 0.000001 10.181605 0.131500 2.607959 2.288934 0.683304 -0.000000 10.083498 -1.000799 2.118137 0.311615 -1.866123 0.000000 9.099986 -1.373401 2.128456 0.296498 -1.862577 0.000001 16.671694 -2.516202 -1.297129 -0.415636 3.735414 -0.000000 9.617898 1.685004 1.418572 3.165192 -0.431838 -0.000000 17.815201 2.584999 0.000001 0.000000 -0.000000 3.067600 6.409485 9.283603 0.000001 0.000000 -0.000000 -3.067600 6.409500 9.283499 0.000001 0.000000 -0.000000 4.570401 10.946000 -2.628001 0.805616 -3.882291 11.590335 10.592388 -0.524577 -2.232083 49.633639 -28.793499 -38.472454 27.841496 -0.000009 0.000006 -0.000026 -73.045069 -0.000054 28.328793 -0.000003 -0.000004 31.809854 3.288885 0.896733 2.466092 -1.576220 2.681690 -1.627239 8.968108 6.932358 3.229805 -1.864700 1.864712 4.379938 13.244926 1.150287 2.652613 -1.531491 1.531488 -0.579478 1.575019 2.538711 1.954616 -1.128481 1.128498 -0.000000 0.000001 0.000002 9.109290 -0.518108 2.259869 0.203430 1.664585 -13.934138 3.676384 0.000008 0.000002 0.199297 1.647824 -13.791138 2.883096 0.000013 -0.000002 0.195872 1.633814 -13.671351 2.392684 0.000001 -0.000001 -0.000001 -0.000000 0.000000 9.533392 0.000017 0.000001 0.252987 1.852836 -15.548781 3.698195 -0.000009 -0.000002 0.353520 2.181923 -18.403772 2.950904 -0.000003 -0.000001 0.369986 2.230818 -18.831969 2.833899 -0.000020 -0.000002 0.000000 -0.000001 -0.000005 9.104498 -0.043057 -1.865119 0.453603 2.462169 -20.873635 3.154013 -0.000003 0.000000 0.633130 2.888878 -24.718268 2.937686 -0.000014 -0.000004 0.666343 2.959884 -25.369315 2.647496 -0.000003 -0.000005 0.000001 0.000001 0.000004 8.077768 -0.486985 -3.806321 3.065740 7.033719 -30.617252 3.599980 -0.000010 0.000002 0.989914 -0.519784 -31.305680 2.114193 0.000011 -0.000002 0.973884 3.535384 -30.793710 1.975692 -0.000000 -0.000002 -0.000000 0.000000 -0.000003 -4.570000 10.946174 -2.628000 2.221257 6.987730 -6.535367 -10.592800 -0.524814 -2.232101 53.062879 38.506073 30.942741 -27.841496 0.000006 -0.000002 0.000023 68.899055 -0.000009 -28.328814 0.000005 -0.000001 18.972594 -6.242153 -1.723100 -8.076694 -0.486719 -3.806228 0.529747 -2.666584 22.468180 -3.600001 -0.000019 -0.000004 0.553027 -2.722150 22.963748 -2.114196 -0.000016 -0.000000 0.567280 -2.755524 23.262029 -1.975690 0.000010 0.000001 0.000000 -0.000000 0.000002 -9.103602 -0.043030 -1.865120 0.311349 -2.061249 17.177309 -3.154001 -0.000003 0.000000 0.455573 -2.479858 20.816321 -2.937692 -0.000010 0.000000 0.497148 -2.586468 21.757240 -2.647488 -0.000012 -0.000001 -0.000000 0.000001 -0.000001 -9.532491 0.000002 0.000000 0.264924 -1.904661 15.835529 -3.698190 -0.000015 0.000000 0.389722 -2.299382 19.237376 -2.950879 -0.000007 0.000002 0.427346 -2.404345 20.153779 -2.833902 0.000008 0.000000 0.000000 0.000000 0.000004 -9.108296 -0.517848 2.259860 0.348130 -2.176590 18.171937 -3.676399 0.000007 -0.000000 0.369083 -2.239386 18.715999 -2.883100 -0.000025 -0.000002 0.383376 -2.281100 19.078294 -2.392685 0.000007 0.000002 0.000001 -0.000000 0.000000 -2.464787 -1.573949 2.681867 -2.030263 -12.017199 -7.916340 -3.229783 -1.864704 1.864715 5.396311 -17.106682 -0.803882 -2.652549 -1.531454 1.531455 -1.273773 0.137311 -2.094875 -1.954610 -1.128509 1.128495 -0.000001 0.000000 -0.000001 8.207801 -6.751691 -1.599600 -7.614842 5.436258 11.931783 0.000003 -44.370499 0.284601 11.569549 9.293472 1.288603 -0.000002 -44.427895 -2.982199 -2.314291 14.721260 -11.270159 -0.000002 -8.728698 10.710602 -0.393024 0.000005 -0.000001 -0.000002 -0.000700 9.278098 0.000000 0.000002 -0.000000 -8.207799 -6.751694 -1.599600 -7.411544 -10.337786 -4.469563 -0.000000 -44.370499 0.286199 8.602134 -4.526868 -2.531891 -0.000002 -44.427696 -2.983800 -2.425938 -1.989189 8.090962 -0.000001 -8.728700 10.710599 -1.252278 0.000010 0.000001 -0.000000 -0.000700 9.278102 -0.000000 -0.000000 0.000000 
0.098430 102.663193 2.054195 2.428912 -5.550274 -2.526608 -0.000001 10.181607 0.131500 2.427084 2.133936 0.554382 0.000000 10.083492 -1.000800 2.316075 0.293433 -1.794447 -0.000000 9.099998 -1.373402 2.326188 0.277619 -1.791713 -0.000001 16.671703 -2.516200 -1.638650 -0.438414 3.988031 0.000000 9.617904 1.685000 1.486808 3.378647 -0.201043 0.000000 17.815186 2.584999 -0.000000 0.000000 0.000000 3.067600 6.409500 9.283596 -0.000000 0.000000 0.000000 -3.067600 6.409500 9.283495 -0.000000 0.000000 0.000000 4.570400 10.946008 -2.628000 0.936611 -4.536942 12.303702 10.592412 -0.524594 -2.232081 48.828339 -27.339555 -40.272872 27.841488 0.000006 0.000010 -0.000011 -74.383881 0.000018 28.328793 0.000003 0.000001 33.649190 4.832868 0.632358 2.466117 -1.576225 2.681686 -1.627237 8.968108 6.932360 3.229785 -1.864721 1.864715 4.379939 13.244928 1.150283 2.652614 -1.531479 1.531487 -0.579478 1.575020 2.538714 1.954590 -1.128489 1.128493 -0.000000 0.000000 -0.000000 9.109307 -0.518122 2.259864 0.201322 1.656077 -13.861511 3.676383 0.000002 -0.000002 0.199791 1.649862 -13.808529 2.883102 0.000011 -0.000000 0.196038 1.634502 -13.677275 2.392699 -0.000000 -0.000001 -0.000001 0.000000 0.000000 9.533405 0.000018 -0.000001 0.251853 1.848780 -15.513848 3.698193 -0.000002 -0.000002 0.353565 2.182034 -18.404665 2.950882 -0.000007 -0.000001 0.370274 2.231646 -18.839316 2.833893 -0.000008 0.000005 0.000000 -0.000001 -0.000003 9.104515 -0.043066 -1.865121 0.453391 2.461624 -20.868781 3.154007 0.000009 -0.000000 0.633034 2.888670 -24.716440 2.937711 -0.000010 -0.000003 0.666857 2.960951 -25.379158 2.647491 -0.000009 -0.000001 -0.000000 -0.000001 0.000000 8.077801 -0.486971 -3.806319 3.068652 7.035283 -30.641195 3.599986 -0.000005 0.000004 0.989338 -0.520737 -31.296347 2.114195 0.000008 0.000000 0.974836 3.536981 -30.809180 1.975690 -0.000014 -0.000002 -0.000000 0.000000 -0.000002 -4.569999 10.946189 -2.627998 2.215091 6.953847 -6.486338 -10.592796 -0.524779 -2.232092 52.908244 38.636003 31.094904 -27.841496 0.000004 -0.000002 0.000037 68.047426 -0.000039 -28.328817 0.000011 0.000006 18.209725 -7.022447 -2.170050 -8.076722 -0.486716 -3.806227 0.527702 -2.661665 22.424529 -3.599992 -0.000002 0.000003 0.554020 -2.724463 22.984258 -2.114199 0.000006 -0.000003 0.566291 -2.753201 23.241281 -1.975698 -0.000028 -0.000005 -0.000000 -0.000001 -0.000001 -9.103618 -0.043040 -1.865121 0.311012 -2.060173 17.168066 -3.154009 -0.000023 0.000004 0.455881 -2.480663 20.823457 -2.937679 0.000002 0.000004 0.496567 -2.584994 21.744191 -2.647496 -0.000027 0.000001 -0.000000 0.000001 -0.000001 -9.532517 0.000006 0.000001 0.265699 -1.907427 15.859045 -3.698191 -0.000017 0.000001 0.389876 -2.299780 19.240926 -2.950863 -0.000023 0.000002 0.426894 -2.403149 20.143123 -2.833898 -0.000004 -0.000003 0.000000 -0.000000 0.000002 -9.108313 -0.517847 2.259859 0.350454 -2.183661 18.233156 -3.676399 0.000006 -0.000000 0.368672 -2.238160 18.705361 -2.883102 -0.000022 -0.000001 0.382937 -2.279849 19.067378 -2.392694 -0.000012 -0.000001 0.000000 -0.000000 0.000001 -2.464802 -1.573951 2.681869 -2.030263 -12.017199 -7.916341 -3.229785 -1.864700 1.864717 5.396310 -17.106682 -0.803884 -2.652540 -1.531453 1.531449 -1.273773 0.137312 -2.094875 -1.954604 -1.128497 1.128497 -0.000000 -0.000001 -0.000000 8.207800 -6.751691 -1.599600 -7.636669 6.055098 11.793045 -0.000000 -44.370506 0.284598 11.497895 8.889967 1.641874 0.000001 -44.427898 -2.982199 -2.345509 14.330422 -11.359133 -0.000002 -8.728699 10.710599 -0.269857 -0.000002 -0.000002 -0.000001 -0.000700 9.278099 0.000000 -0.000003 -0.000000 -8.207800 -6.751692 -1.599600 -7.572729 -10.317833 -4.558984 -0.000001 -44.370495 0.286201 9.163348 -4.475323 -2.434788 -0.000002 -44.427704 -2.983802 -2.731897 -2.194430 7.499864 -0.000000 -8.728699 10.710600 -1.481639 -0.000000 0.000003 0.000000 -0.000700 9.278101 -0.000000 0.000001 -0.000000 
